<svg width="13" height="8" viewBox="0 0 13 8" fill="none" xmlns="http://www.w3.org/2000/svg">
<path fill-rule="evenodd" clip-rule="evenodd" d="M8.2344 0.239112C8.38442 0.0891352 8.58787 0.00488281 8.8 0.00488281C9.01213 0.00488281 9.21558 0.0891352 9.3656 0.239112L12.5656 3.43911C12.7156 3.58913 12.7998 3.79258 12.7998 4.00471C12.7998 4.21684 12.7156 4.42029 12.5656 4.57031L9.3656 7.77031C9.21472 7.91604 9.01264 7.99667 8.80288 7.99485C8.59312 7.99303 8.39247 7.90889 8.24414 7.76057C8.09582 7.61224 8.01168 7.41159 8.00986 7.20183C8.00804 6.99207 8.08867 6.78999 8.2344 6.63911L10.0688 4.80471H0.8C0.587827 4.80471 0.384344 4.72043 0.234315 4.5704C0.0842854 4.42037 0 4.21688 0 4.00471C0 3.79254 0.0842854 3.58906 0.234315 3.43903C0.384344 3.289 0.587827 3.20471 0.8 3.20471H10.0688L8.2344 1.37031C8.08442 1.22029 8.00017 1.01684 8.00017 0.804712C8.00017 0.592581 8.08442 0.389134 8.2344 0.239112Z" fill="white"/>
</svg>
