<svg xmlns="http://www.w3.org/2000/svg" version="1.1" xmlns:xlink="http://www.w3.org/1999/xlink" xmlns:svgjs="http://svgjs.dev/svgjs" width="2000" height="1500" viewBox="0 0 2000 1500"><rect width="2000" height="1500" fill="#c8c8c8"></rect><g transform="matrix(0.75,0,0,0.75,249.090909090909,612.7392178777295)"><svg viewBox="0 0 396 73" data-background-color="#c8c8c8" preserveAspectRatio="xMidYMid meet" height="368" width="2000" xmlns="http://www.w3.org/2000/svg" xmlns:xlink="http://www.w3.org/1999/xlink"><g id="tight-bounds" transform="matrix(1,0,0,1,0.2400000000000091,-0.19551777200817355)"><svg viewBox="0 0 395.52 73.39103554401633" height="73.39103554401633" width="395.52"><g><svg viewBox="0 0 540.1940542058016 100.23614743346549" height="73.39103554401633" width="395.52"><g><rect width="4.1862993361956535" height="59.26213227597143" x="129.5288560837535" y="20.48700757874703" fill="#000000" opacity="1" stroke-width="0" stroke="transparent" fill-opacity="1" class="rect-qz-0" data-fill-palette-color="secondary" rx="1%" id="qz-0" data-palette-color="#000000"></rect></g><g transform="matrix(1,0,0,1,144.67405420580164,20.634425818239492)"><svg viewBox="0 0 395.52 58.967295796986505" height="58.967295796986505" width="395.52"><g id="textblocktransform"><svg viewBox="0 0 395.52 58.967295796986505" height="58.967295796986505" width="395.52" id="textblock"><g><svg viewBox="0 0 395.52 58.967295796986505" height="58.967295796986505" width="395.52"><g transform="matrix(1,0,0,1,0,0)"><svg width="395.52" viewBox="-4.75 -42 317.13 48" height="58.967295796986505" data-palette-color="#000000"><g class="wordmark-text-0" data-fill-palette-color="primary" id="text-0"><path d="M0.75-26.05L4.55-26.05 12.2-15.85 12.6-15.1 13-15.85 20.6-26.05 24.45-26.05 14.55-12.95 24.45 0 20.6 0 13-10.15 12.6-10.85 12.2-10.15 4.6 0 0.75 0 10.6-12.95 0.75-26.05ZM40.2 0.5L40.2 0.5Q37.4 0.5 35-0.58 32.6-1.65 30.85-3.53 29.1-5.4 28.12-7.85 27.15-10.3 27.15-13.1L27.15-13.1Q27.15-16.75 28.82-19.8 30.5-22.85 33.45-24.68 36.4-26.5 40.15-26.5L40.15-26.5Q44-26.5 46.87-24.65 49.75-22.8 51.4-19.78 53.05-16.75 53.05-13.15L53.05-13.15Q53.05-12.75 53.05-12.38 53.05-12 53-11.8L53-11.8 30.7-11.8Q30.95-9 32.27-6.83 33.6-4.65 35.72-3.38 37.85-2.1 40.35-2.1L40.35-2.1Q42.9-2.1 45.17-3.4 47.45-4.7 48.35-6.8L48.35-6.8 51.3-6Q50.5-4.15 48.85-2.65 47.2-1.15 44.97-0.33 42.75 0.5 40.2 0.5ZM30.6-14.25L30.6-14.25 49.85-14.25Q49.65-17.1 48.32-19.25 47-21.4 44.87-22.63 42.75-23.85 40.2-23.85L40.2-23.85Q37.65-23.85 35.55-22.63 33.45-21.4 32.12-19.23 30.8-17.05 30.6-14.25ZM69.9-4L70.8-1.25Q70.4-1.1 69.55-0.7 68.7-0.3 67.5 0 66.3 0.3 64.9 0.3L64.9 0.3Q63.45 0.3 62.17-0.25 60.9-0.8 60.15-1.93 59.4-3.05 59.4-4.7L59.4-4.7 59.4-23.35 55.8-23.35 55.8-26.05 59.4-26.05 59.4-34.85 62.8-34.85 62.8-26.05 68.8-26.05 68.8-23.35 62.8-23.35 62.8-5.65Q62.9-4.25 63.82-3.55 64.75-2.85 65.95-2.85L65.95-2.85Q67.34-2.85 68.5-3.33 69.65-3.8 69.9-4L69.9-4Z" fill="#000000" data-fill-palette-color="primary"></path><path d="M91.5 0L88 0 88-35.5 91.5-35.5 91.5 0ZM121.6-15.25L121.6 0 118.19 0 118.19-14.55Q118.19-19.15 116.85-21.28 115.5-23.4 112.6-23.4L112.6-23.4Q110.6-23.4 108.64-22.43 106.69-21.45 105.22-19.78 103.75-18.1 103.1-15.95L103.1-15.95 103.1 0 99.69 0 99.69-26.05 102.8-26.05 102.8-20.15Q103.85-22.05 105.55-23.48 107.25-24.9 109.39-25.7 111.55-26.5 113.85-26.5L113.85-26.5Q116-26.5 117.5-25.7 119-24.9 119.89-23.43 120.8-21.95 121.19-19.88 121.6-17.8 121.6-15.25L121.6-15.25ZM127.09-12.95L127.09-12.95Q127.09-16.65 128.62-19.73 130.14-22.8 132.84-24.65 135.54-26.5 138.99-26.5L138.99-26.5Q142.24-26.5 144.82-24.78 147.39-23.05 148.84-20.6L148.84-20.6 148.84-36.5 152.24-36.5 152.24-4.1Q152.24-3.4 152.54-3.08 152.84-2.75 153.44-2.7L153.44-2.7 153.44 0Q152.44 0.15 151.89 0.1L151.89 0.1Q150.84 0.05 150.04-0.75 149.24-1.55 149.24-2.5L149.24-2.5 149.24-5.05Q147.69-2.5 145.04-1 142.39 0.5 139.54 0.5L139.54 0.5Q136.84 0.5 134.57-0.6 132.29-1.7 130.62-3.6 128.94-5.5 128.02-7.93 127.09-10.35 127.09-12.95ZM148.84-8.95L148.84-8.95 148.84-17Q148.19-18.8 146.74-20.28 145.29-21.75 143.47-22.63 141.64-23.5 139.84-23.5L139.84-23.5Q137.74-23.5 136.04-22.63 134.34-21.75 133.12-20.25 131.89-18.75 131.24-16.85 130.59-14.95 130.59-12.95L130.59-12.95Q130.59-10.85 131.32-8.95 132.04-7.05 133.39-5.58 134.74-4.1 136.49-3.3 138.24-2.5 140.29-2.5L140.29-2.5Q141.59-2.5 142.99-3 144.39-3.5 145.67-4.38 146.94-5.25 147.79-6.45 148.64-7.65 148.84-8.95ZM159.69-10.75L159.69-10.75 159.69-26.05 163.09-26.05 163.09-11.35Q163.09-6.9 164.62-4.7 166.14-2.5 169.14-2.5L169.14-2.5Q171.14-2.5 173.02-3.38 174.89-4.25 176.34-5.88 177.79-7.5 178.54-9.65L178.54-9.65 178.54-26.05 181.94-26.05 181.94-4.1Q181.94-3.4 182.24-3.08 182.54-2.75 183.14-2.7L183.14-2.7 183.14 0Q182.54 0.05 182.19 0.08 181.84 0.1 181.54 0.1L181.54 0.1Q180.54 0 179.82-0.7 179.09-1.4 179.04-2.4L179.04-2.4 178.94-5.9Q177.24-2.9 174.32-1.2 171.39 0.5 167.99 0.5L167.99 0.5Q163.89 0.5 161.79-2.35 159.69-5.2 159.69-10.75ZM198.19 0.5L198.19 0.5Q194.99 0.5 192.24-0.55 189.49-1.6 187.49-3.75L187.49-3.75 188.89-6.15Q191.09-4.1 193.31-3.18 195.54-2.25 198.04-2.25L198.04-2.25Q201.09-2.25 202.99-3.48 204.89-4.7 204.89-7L204.89-7Q204.89-8.55 203.96-9.38 203.04-10.2 201.31-10.73 199.59-11.25 197.19-11.85L197.19-11.85Q194.49-12.6 192.66-13.43 190.84-14.25 189.91-15.53 188.99-16.8 188.99-18.85L188.99-18.85Q188.99-21.4 190.26-23.08 191.54-24.75 193.76-25.63 195.99-26.5 198.74-26.5L198.74-26.5Q201.74-26.5 204.04-25.55 206.34-24.6 207.79-22.9L207.79-22.9 206.14-20.6Q204.74-22.2 202.81-22.98 200.89-23.75 198.54-23.75L198.54-23.75Q196.94-23.75 195.49-23.33 194.04-22.9 193.11-21.93 192.19-20.95 192.19-19.25L192.19-19.25Q192.19-17.85 192.89-17.07 193.59-16.3 194.99-15.78 196.39-15.25 198.44-14.65L198.44-14.65Q201.39-13.85 203.59-13.03 205.79-12.2 206.99-10.9 208.19-9.6 208.19-7.25L208.19-7.25Q208.19-3.6 205.44-1.55 202.69 0.5 198.19 0.5ZM225.39-4L226.29-1.25Q225.89-1.1 225.04-0.7 224.19-0.3 222.99 0 221.79 0.3 220.39 0.3L220.39 0.3Q218.94 0.3 217.66-0.25 216.39-0.8 215.64-1.93 214.89-3.05 214.89-4.7L214.89-4.7 214.89-23.35 211.29-23.35 211.29-26.05 214.89-26.05 214.89-34.85 218.29-34.85 218.29-26.05 224.29-26.05 224.29-23.35 218.29-23.35 218.29-5.65Q218.39-4.25 219.31-3.55 220.24-2.85 221.44-2.85L221.44-2.85Q222.84-2.85 223.99-3.33 225.14-3.8 225.39-4L225.39-4ZM243.53-26.15L243.53-23.05Q240.13-22.95 237.56-21.15 234.98-19.35 233.93-16.2L233.93-16.2 233.93 0 230.53 0 230.53-26.05 233.73-26.05 233.73-19.8Q235.08-22.55 237.31-24.25 239.53-25.95 242.03-26.15L242.03-26.15Q242.53-26.2 242.91-26.2 243.28-26.2 243.53-26.15L243.53-26.15ZM251.48 0L248.08 0 248.08-26.05 251.48-26.05 251.48 0ZM251.48-31.5L248.08-31.5 248.08-36.5 251.48-36.5 251.48-31.5ZM270.23 0.5L270.23 0.5Q267.43 0.5 265.03-0.58 262.63-1.65 260.88-3.53 259.13-5.4 258.15-7.85 257.18-10.3 257.18-13.1L257.18-13.1Q257.18-16.75 258.85-19.8 260.53-22.85 263.48-24.68 266.43-26.5 270.18-26.5L270.18-26.5Q274.03-26.5 276.9-24.65 279.78-22.8 281.43-19.78 283.08-16.75 283.08-13.15L283.08-13.15Q283.08-12.75 283.08-12.38 283.08-12 283.03-11.8L283.03-11.8 260.73-11.8Q260.98-9 262.3-6.83 263.63-4.65 265.75-3.38 267.88-2.1 270.38-2.1L270.38-2.1Q272.93-2.1 275.2-3.4 277.48-4.7 278.38-6.8L278.38-6.8 281.33-6Q280.53-4.15 278.88-2.65 277.23-1.15 275-0.33 272.78 0.5 270.23 0.5ZM260.63-14.25L260.63-14.25 279.88-14.25Q279.68-17.1 278.35-19.25 277.03-21.4 274.9-22.63 272.78-23.85 270.23-23.85L270.23-23.85Q267.68-23.85 265.58-22.63 263.48-21.4 262.15-19.23 260.83-17.05 260.63-14.25ZM296.88 0.5L296.88 0.5Q293.68 0.5 290.93-0.55 288.18-1.6 286.18-3.75L286.18-3.75 287.58-6.15Q289.78-4.1 292-3.18 294.23-2.25 296.73-2.25L296.73-2.25Q299.78-2.25 301.68-3.48 303.58-4.7 303.58-7L303.58-7Q303.58-8.55 302.65-9.38 301.73-10.2 300-10.73 298.28-11.25 295.88-11.85L295.88-11.85Q293.18-12.6 291.35-13.43 289.53-14.25 288.6-15.53 287.68-16.8 287.68-18.85L287.68-18.85Q287.68-21.4 288.95-23.08 290.23-24.75 292.45-25.63 294.68-26.5 297.43-26.5L297.43-26.5Q300.43-26.5 302.73-25.55 305.03-24.6 306.48-22.9L306.48-22.9 304.83-20.6Q303.43-22.2 301.5-22.98 299.58-23.75 297.23-23.75L297.23-23.75Q295.63-23.75 294.18-23.33 292.73-22.9 291.8-21.93 290.88-20.95 290.88-19.25L290.88-19.25Q290.88-17.85 291.58-17.07 292.28-16.3 293.68-15.78 295.08-15.25 297.13-14.65L297.13-14.65Q300.08-13.85 302.28-13.03 304.48-12.2 305.68-10.9 306.88-9.6 306.88-7.25L306.88-7.25Q306.88-3.6 304.13-1.55 301.38 0.5 296.88 0.5Z" fill="#000000" data-fill-palette-color="primary"></path></g></svg></g></svg></g></svg></g></svg></g><g><svg viewBox="0 0 118.56995729790103 100.23614743346549" height="100.23614743346549" width="118.56995729790103"><g><svg xmlns="http://www.w3.org/2000/svg" xmlns:xlink="http://www.w3.org/1999/xlink" version="1.1" x="8" y="0" viewBox="4.000085497435469 5.013332686502011 91.05855408469914 88.98666717587562" enable-background="new 0 0 100 100" xml:space="preserve" height="100.23614743346549" width="102.56995729790103" class="icon-icon-0" data-fill-palette-color="accent" id="icon-0"><g fill="#000000" data-fill-palette-color="accent"><circle cx="55.538" cy="19.677" r="4.9" fill="#000000" data-fill-palette-color="accent"></circle></g><g fill="#000000" data-fill-palette-color="accent"><circle cx="23.472" cy="42.596" r="4.9" fill="#000000" data-fill-palette-color="accent"></circle></g><g fill="#000000" data-fill-palette-color="accent"><circle cx="45.736" cy="65.145" r="4.9" fill="#000000" data-fill-palette-color="accent"></circle></g><g fill="#000000" data-fill-palette-color="accent"><circle cx="12.968" cy="82.662" r="4.9" fill="#000000" data-fill-palette-color="accent"></circle></g><g fill="#000000" data-fill-palette-color="accent"><circle cx="81.493" cy="25.552" r="4.9" fill="#000000" data-fill-palette-color="accent"></circle></g><g fill="#000000" data-fill-palette-color="accent"><circle cx="47.69" cy="89.1" r="4.9" fill="#000000" data-fill-palette-color="accent"></circle></g><g fill="#000000" data-fill-palette-color="accent"><path d="M12.968 83.811c-0.145 0-0.287-0.027-0.419-0.078-0.101-0.041-0.197-0.094-0.285-0.162-0.15-0.117-0.273-0.273-0.353-0.457-0.02-0.047-0.037-0.096-0.05-0.143L4.046 56.078c-0.136-0.471 0.039-0.975 0.438-1.258l51.203-36.386c0.455-0.323 1.075-0.273 1.473 0.117s0.457 1.01 0.143 1.47L16.579 79.428l28.615-15.297c0.166-0.088 0.353-0.135 0.542-0.135h46.606L80.492 26.358 58.655 7.024c-0.475-0.421-0.52-1.147-0.098-1.623 0.42-0.475 1.147-0.52 1.622-0.099l22.075 19.545c0.156 0.139 0.272 0.317 0.335 0.516l12.417 39.437c0.109 0.348 0.047 0.729-0.17 1.023-0.217 0.297-0.561 0.471-0.927 0.471H46.024L13.532 83.664c-0.051 0.027-0.104 0.053-0.159 0.074-0.069 0.025-0.141 0.045-0.212 0.057C13.097 83.807 13.032 83.811 12.968 83.811zM6.482 56.221l6.912 23.785 38.356-55.953L6.482 56.221z" fill="#000000" data-fill-palette-color="accent"></path></g><g fill="#000000" data-fill-palette-color="accent"><path d="M45.737 66.295c-0.077 0-0.155-0.008-0.233-0.023l0 0c-0.001 0-0.002 0-0.002 0-0.017-0.004-0.032-0.008-0.047-0.012l0 0c-0.003 0-0.004 0-0.006-0.002l0 0c-0.213-0.055-0.396-0.164-0.539-0.312L10.716 31.75 6.281 55.965c-0.114 0.625-0.714 1.037-1.338 0.924-0.625-0.115-1.038-0.715-0.924-1.338l4.829-26.37c0.076-0.42 0.381-0.763 0.788-0.891 0.408-0.127 0.854-0.018 1.155 0.285l34.292 34.292 9.896-42.656-28.495-7.184c-0.526-0.132-0.888-0.614-0.868-1.156s0.416-0.997 0.949-1.091l32.653-5.749c0.38-0.067 0.769 0.062 1.033 0.341 0.266 0.28 0.373 0.675 0.286 1.051l-2.81 12.109 24.046 6.062c0.391 0.099 0.702 0.396 0.819 0.782 0.116 0.386 0.022 0.806-0.249 1.105L46.603 65.9c-0.065 0.076-0.141 0.143-0.224 0.197 0 0.002-0.001 0.002-0.001 0.002-0.001 0-0.001 0-0.002 0l-0.001 0.002c-0.001 0-0.001 0-0.001 0-0.017 0.012-0.032 0.021-0.049 0.031-0.001 0-0.001 0-0.001 0-0.001 0-0.001 0-0.002 0.002h-0.001c-0.001 0-0.001 0-0.001 0C46.146 66.238 45.945 66.295 45.737 66.295zM57.209 20.773l-9.354 40.323 31.499-34.74L57.209 20.773zM32.262 12.112l23.237 5.858 2.406-10.373L32.262 12.112z" fill="#000000" data-fill-palette-color="accent"></path></g><g fill="#000000" data-fill-palette-color="accent"><path d="M47.69 90.25c-0.069 0-0.14-0.006-0.21-0.02l-34.722-6.439c-0.624-0.115-1.036-0.715-0.921-1.34 0.116-0.623 0.717-1.037 1.34-0.92l33.245 6.164-1.82-22.307-18.92-53.09c-0.214-0.598 0.099-1.256 0.697-1.469 0.598-0.213 1.255 0.099 1.469 0.697L46.819 64.76c0.033 0.094 0.055 0.191 0.062 0.293l1.955 23.953c0.028 0.357-0.11 0.707-0.376 0.947C48.248 90.145 47.973 90.25 47.69 90.25z" fill="#000000" data-fill-palette-color="accent"></path></g><g fill="#000000" data-fill-palette-color="accent"><path d="M47.689 90.25c-0.183 0-0.367-0.043-0.54-0.135-0.561-0.301-0.772-0.996-0.474-1.557l33.803-63.391c0.299-0.56 0.995-0.772 1.556-0.474 0.56 0.299 0.771 0.996 0.474 1.556L48.705 89.641C48.498 90.029 48.101 90.25 47.689 90.25z" fill="#000000" data-fill-palette-color="accent"></path></g></svg></g></svg></g></svg></g><defs></defs></svg><rect width="395.52" height="73.39103554401633" fill="none" stroke="none" visibility="hidden"></rect></g></svg></g></svg>